<mxfile host="app.diagrams.net" modified="2021-07-08T12:26:05.812Z" agent="5.0 (Macintosh)" etag="GHrdasZFMQhNAudPDTOD" version="14.8.4" type="github">
  <diagram id="kydLf8fK8O1BJlKZnqxI" name="Page-1">
    <mxGraphModel dx="1186" dy="651" grid="1" gridSize="10" guides="1" tooltips="1" connect="1" arrows="1" fold="1" page="1" pageScale="1" pageWidth="827" pageHeight="1169" math="0" shadow="0">
      <root>
        <mxCell id="0" />
        <mxCell id="1" parent="0" />
        <mxCell id="X4j_KYpzzPQGK-hWHXPB-1" value="" style="shape=table;startSize=0;container=1;collapsible=0;childLayout=tableLayout;" vertex="1" parent="1">
          <mxGeometry x="410" y="420" width="820" height="406" as="geometry" />
        </mxCell>
        <mxCell id="X4j_KYpzzPQGK-hWHXPB-2" value="" style="shape=partialRectangle;collapsible=0;dropTarget=0;pointerEvents=0;fillColor=none;top=0;left=0;bottom=0;right=0;points=[[0,0.5],[1,0.5]];portConstraint=eastwest;" vertex="1" parent="X4j_KYpzzPQGK-hWHXPB-1">
          <mxGeometry width="820" height="65" as="geometry" />
        </mxCell>
        <mxCell id="X4j_KYpzzPQGK-hWHXPB-3" value="Item name" style="shape=partialRectangle;html=1;whiteSpace=wrap;connectable=0;overflow=hidden;fillColor=none;top=0;left=0;bottom=0;right=0;" vertex="1" parent="X4j_KYpzzPQGK-hWHXPB-2">
          <mxGeometry width="86" height="65" as="geometry" />
        </mxCell>
        <mxCell id="X4j_KYpzzPQGK-hWHXPB-4" value="Reference" style="shape=partialRectangle;html=1;whiteSpace=wrap;connectable=0;overflow=hidden;fillColor=none;top=0;left=0;bottom=0;right=0;" vertex="1" parent="X4j_KYpzzPQGK-hWHXPB-2">
          <mxGeometry x="86" width="86" height="65" as="geometry" />
        </mxCell>
        <mxCell id="X4j_KYpzzPQGK-hWHXPB-5" value="Quantity" style="shape=partialRectangle;html=1;whiteSpace=wrap;connectable=0;overflow=hidden;fillColor=none;top=0;left=0;bottom=0;right=0;" vertex="1" parent="X4j_KYpzzPQGK-hWHXPB-2">
          <mxGeometry x="172" width="75" height="65" as="geometry" />
        </mxCell>
        <mxCell id="X4j_KYpzzPQGK-hWHXPB-6" value="Image" style="shape=partialRectangle;html=1;whiteSpace=wrap;connectable=0;overflow=hidden;fillColor=none;top=0;left=0;bottom=0;right=0;" vertex="1" parent="X4j_KYpzzPQGK-hWHXPB-2">
          <mxGeometry x="247" width="161" height="65" as="geometry" />
        </mxCell>
        <mxCell id="X4j_KYpzzPQGK-hWHXPB-7" value="Item name" style="shape=partialRectangle;html=1;whiteSpace=wrap;connectable=0;overflow=hidden;fillColor=none;top=0;left=0;bottom=0;right=0;" vertex="1" parent="X4j_KYpzzPQGK-hWHXPB-2">
          <mxGeometry x="408" width="82" height="65" as="geometry" />
        </mxCell>
        <mxCell id="X4j_KYpzzPQGK-hWHXPB-8" value="Reference" style="shape=partialRectangle;html=1;whiteSpace=wrap;connectable=0;overflow=hidden;fillColor=none;top=0;left=0;bottom=0;right=0;" vertex="1" parent="X4j_KYpzzPQGK-hWHXPB-2">
          <mxGeometry x="490" width="90" height="65" as="geometry" />
        </mxCell>
        <mxCell id="X4j_KYpzzPQGK-hWHXPB-66" value="Quantity" style="shape=partialRectangle;html=1;whiteSpace=wrap;connectable=0;overflow=hidden;fillColor=none;top=0;left=0;bottom=0;right=0;" vertex="1" parent="X4j_KYpzzPQGK-hWHXPB-2">
          <mxGeometry x="580" width="70" height="65" as="geometry" />
        </mxCell>
        <mxCell id="X4j_KYpzzPQGK-hWHXPB-9" value="Image" style="shape=partialRectangle;html=1;whiteSpace=wrap;connectable=0;overflow=hidden;fillColor=none;top=0;left=0;bottom=0;right=0;" vertex="1" parent="X4j_KYpzzPQGK-hWHXPB-2">
          <mxGeometry x="650" width="170" height="65" as="geometry" />
        </mxCell>
        <mxCell id="X4j_KYpzzPQGK-hWHXPB-10" style="shape=partialRectangle;collapsible=0;dropTarget=0;pointerEvents=0;fillColor=none;top=0;left=0;bottom=0;right=0;points=[[0,0.5],[1,0.5]];portConstraint=eastwest;" vertex="1" parent="X4j_KYpzzPQGK-hWHXPB-1">
          <mxGeometry y="65" width="820" height="65" as="geometry" />
        </mxCell>
        <mxCell id="X4j_KYpzzPQGK-hWHXPB-11" value="" style="shape=partialRectangle;html=1;whiteSpace=wrap;connectable=0;overflow=hidden;fillColor=none;top=0;left=0;bottom=0;right=0;" vertex="1" parent="X4j_KYpzzPQGK-hWHXPB-10">
          <mxGeometry width="86" height="65" as="geometry" />
        </mxCell>
        <mxCell id="X4j_KYpzzPQGK-hWHXPB-12" style="shape=partialRectangle;html=1;whiteSpace=wrap;connectable=0;overflow=hidden;fillColor=none;top=0;left=0;bottom=0;right=0;" vertex="1" parent="X4j_KYpzzPQGK-hWHXPB-10">
          <mxGeometry x="86" width="86" height="65" as="geometry" />
        </mxCell>
        <mxCell id="X4j_KYpzzPQGK-hWHXPB-13" style="shape=partialRectangle;html=1;whiteSpace=wrap;connectable=0;overflow=hidden;fillColor=none;top=0;left=0;bottom=0;right=0;" vertex="1" parent="X4j_KYpzzPQGK-hWHXPB-10">
          <mxGeometry x="172" width="75" height="65" as="geometry" />
        </mxCell>
        <mxCell id="X4j_KYpzzPQGK-hWHXPB-14" style="shape=partialRectangle;html=1;whiteSpace=wrap;connectable=0;overflow=hidden;fillColor=none;top=0;left=0;bottom=0;right=0;" vertex="1" parent="X4j_KYpzzPQGK-hWHXPB-10">
          <mxGeometry x="247" width="161" height="65" as="geometry" />
        </mxCell>
        <mxCell id="X4j_KYpzzPQGK-hWHXPB-15" value="" style="shape=partialRectangle;html=1;whiteSpace=wrap;connectable=0;overflow=hidden;fillColor=none;top=0;left=0;bottom=0;right=0;" vertex="1" parent="X4j_KYpzzPQGK-hWHXPB-10">
          <mxGeometry x="408" width="82" height="65" as="geometry" />
        </mxCell>
        <mxCell id="X4j_KYpzzPQGK-hWHXPB-16" style="shape=partialRectangle;html=1;whiteSpace=wrap;connectable=0;overflow=hidden;fillColor=none;top=0;left=0;bottom=0;right=0;" vertex="1" parent="X4j_KYpzzPQGK-hWHXPB-10">
          <mxGeometry x="490" width="90" height="65" as="geometry" />
        </mxCell>
        <mxCell id="X4j_KYpzzPQGK-hWHXPB-67" style="shape=partialRectangle;html=1;whiteSpace=wrap;connectable=0;overflow=hidden;fillColor=none;top=0;left=0;bottom=0;right=0;" vertex="1" parent="X4j_KYpzzPQGK-hWHXPB-10">
          <mxGeometry x="580" width="70" height="65" as="geometry" />
        </mxCell>
        <mxCell id="X4j_KYpzzPQGK-hWHXPB-17" value="" style="shape=partialRectangle;html=1;whiteSpace=wrap;connectable=0;overflow=hidden;fillColor=none;top=0;left=0;bottom=0;right=0;" vertex="1" parent="X4j_KYpzzPQGK-hWHXPB-10">
          <mxGeometry x="650" width="170" height="65" as="geometry" />
        </mxCell>
        <mxCell id="X4j_KYpzzPQGK-hWHXPB-18" style="shape=partialRectangle;collapsible=0;dropTarget=0;pointerEvents=0;fillColor=none;top=0;left=0;bottom=0;right=0;points=[[0,0.5],[1,0.5]];portConstraint=eastwest;" vertex="1" parent="X4j_KYpzzPQGK-hWHXPB-1">
          <mxGeometry y="130" width="820" height="70" as="geometry" />
        </mxCell>
        <mxCell id="X4j_KYpzzPQGK-hWHXPB-19" value="" style="shape=partialRectangle;html=1;whiteSpace=wrap;connectable=0;overflow=hidden;fillColor=none;top=0;left=0;bottom=0;right=0;" vertex="1" parent="X4j_KYpzzPQGK-hWHXPB-18">
          <mxGeometry width="86" height="70" as="geometry" />
        </mxCell>
        <mxCell id="X4j_KYpzzPQGK-hWHXPB-20" style="shape=partialRectangle;html=1;whiteSpace=wrap;connectable=0;overflow=hidden;fillColor=none;top=0;left=0;bottom=0;right=0;" vertex="1" parent="X4j_KYpzzPQGK-hWHXPB-18">
          <mxGeometry x="86" width="86" height="70" as="geometry" />
        </mxCell>
        <mxCell id="X4j_KYpzzPQGK-hWHXPB-21" style="shape=partialRectangle;html=1;whiteSpace=wrap;connectable=0;overflow=hidden;fillColor=none;top=0;left=0;bottom=0;right=0;" vertex="1" parent="X4j_KYpzzPQGK-hWHXPB-18">
          <mxGeometry x="172" width="75" height="70" as="geometry" />
        </mxCell>
        <mxCell id="X4j_KYpzzPQGK-hWHXPB-22" style="shape=partialRectangle;html=1;whiteSpace=wrap;connectable=0;overflow=hidden;fillColor=none;top=0;left=0;bottom=0;right=0;" vertex="1" parent="X4j_KYpzzPQGK-hWHXPB-18">
          <mxGeometry x="247" width="161" height="70" as="geometry" />
        </mxCell>
        <mxCell id="X4j_KYpzzPQGK-hWHXPB-23" style="shape=partialRectangle;html=1;whiteSpace=wrap;connectable=0;overflow=hidden;fillColor=none;top=0;left=0;bottom=0;right=0;" vertex="1" parent="X4j_KYpzzPQGK-hWHXPB-18">
          <mxGeometry x="408" width="82" height="70" as="geometry" />
        </mxCell>
        <mxCell id="X4j_KYpzzPQGK-hWHXPB-24" style="shape=partialRectangle;html=1;whiteSpace=wrap;connectable=0;overflow=hidden;fillColor=none;top=0;left=0;bottom=0;right=0;" vertex="1" parent="X4j_KYpzzPQGK-hWHXPB-18">
          <mxGeometry x="490" width="90" height="70" as="geometry" />
        </mxCell>
        <mxCell id="X4j_KYpzzPQGK-hWHXPB-68" style="shape=partialRectangle;html=1;whiteSpace=wrap;connectable=0;overflow=hidden;fillColor=none;top=0;left=0;bottom=0;right=0;" vertex="1" parent="X4j_KYpzzPQGK-hWHXPB-18">
          <mxGeometry x="580" width="70" height="70" as="geometry" />
        </mxCell>
        <mxCell id="X4j_KYpzzPQGK-hWHXPB-25" style="shape=partialRectangle;html=1;whiteSpace=wrap;connectable=0;overflow=hidden;fillColor=none;top=0;left=0;bottom=0;right=0;" vertex="1" parent="X4j_KYpzzPQGK-hWHXPB-18">
          <mxGeometry x="650" width="170" height="70" as="geometry" />
        </mxCell>
        <mxCell id="X4j_KYpzzPQGK-hWHXPB-26" value="" style="shape=partialRectangle;collapsible=0;dropTarget=0;pointerEvents=0;fillColor=none;top=0;left=0;bottom=0;right=0;points=[[0,0.5],[1,0.5]];portConstraint=eastwest;" vertex="1" parent="X4j_KYpzzPQGK-hWHXPB-1">
          <mxGeometry y="200" width="820" height="70" as="geometry" />
        </mxCell>
        <mxCell id="X4j_KYpzzPQGK-hWHXPB-27" value="" style="shape=partialRectangle;html=1;whiteSpace=wrap;connectable=0;overflow=hidden;fillColor=none;top=0;left=0;bottom=0;right=0;" vertex="1" parent="X4j_KYpzzPQGK-hWHXPB-26">
          <mxGeometry width="86" height="70" as="geometry" />
        </mxCell>
        <mxCell id="X4j_KYpzzPQGK-hWHXPB-28" value="" style="shape=partialRectangle;html=1;whiteSpace=wrap;connectable=0;overflow=hidden;fillColor=none;top=0;left=0;bottom=0;right=0;" vertex="1" parent="X4j_KYpzzPQGK-hWHXPB-26">
          <mxGeometry x="86" width="86" height="70" as="geometry" />
        </mxCell>
        <mxCell id="X4j_KYpzzPQGK-hWHXPB-29" value="" style="shape=partialRectangle;html=1;whiteSpace=wrap;connectable=0;overflow=hidden;fillColor=none;top=0;left=0;bottom=0;right=0;" vertex="1" parent="X4j_KYpzzPQGK-hWHXPB-26">
          <mxGeometry x="172" width="75" height="70" as="geometry" />
        </mxCell>
        <mxCell id="X4j_KYpzzPQGK-hWHXPB-30" value="" style="shape=partialRectangle;html=1;whiteSpace=wrap;connectable=0;overflow=hidden;fillColor=none;top=0;left=0;bottom=0;right=0;" vertex="1" parent="X4j_KYpzzPQGK-hWHXPB-26">
          <mxGeometry x="247" width="161" height="70" as="geometry" />
        </mxCell>
        <mxCell id="X4j_KYpzzPQGK-hWHXPB-31" value="" style="shape=partialRectangle;html=1;whiteSpace=wrap;connectable=0;overflow=hidden;fillColor=none;top=0;left=0;bottom=0;right=0;" vertex="1" parent="X4j_KYpzzPQGK-hWHXPB-26">
          <mxGeometry x="408" width="82" height="70" as="geometry" />
        </mxCell>
        <mxCell id="X4j_KYpzzPQGK-hWHXPB-32" value="" style="shape=partialRectangle;html=1;whiteSpace=wrap;connectable=0;overflow=hidden;fillColor=none;top=0;left=0;bottom=0;right=0;" vertex="1" parent="X4j_KYpzzPQGK-hWHXPB-26">
          <mxGeometry x="490" width="90" height="70" as="geometry" />
        </mxCell>
        <mxCell id="X4j_KYpzzPQGK-hWHXPB-69" style="shape=partialRectangle;html=1;whiteSpace=wrap;connectable=0;overflow=hidden;fillColor=none;top=0;left=0;bottom=0;right=0;" vertex="1" parent="X4j_KYpzzPQGK-hWHXPB-26">
          <mxGeometry x="580" width="70" height="70" as="geometry" />
        </mxCell>
        <mxCell id="X4j_KYpzzPQGK-hWHXPB-33" value="" style="shape=partialRectangle;html=1;whiteSpace=wrap;connectable=0;overflow=hidden;fillColor=none;top=0;left=0;bottom=0;right=0;" vertex="1" parent="X4j_KYpzzPQGK-hWHXPB-26">
          <mxGeometry x="650" width="170" height="70" as="geometry" />
        </mxCell>
        <mxCell id="X4j_KYpzzPQGK-hWHXPB-34" value="" style="shape=partialRectangle;collapsible=0;dropTarget=0;pointerEvents=0;fillColor=none;top=0;left=0;bottom=0;right=0;points=[[0,0.5],[1,0.5]];portConstraint=eastwest;" vertex="1" parent="X4j_KYpzzPQGK-hWHXPB-1">
          <mxGeometry y="270" width="820" height="70" as="geometry" />
        </mxCell>
        <mxCell id="X4j_KYpzzPQGK-hWHXPB-35" value="" style="shape=partialRectangle;html=1;whiteSpace=wrap;connectable=0;overflow=hidden;fillColor=none;top=0;left=0;bottom=0;right=0;" vertex="1" parent="X4j_KYpzzPQGK-hWHXPB-34">
          <mxGeometry width="86" height="70" as="geometry" />
        </mxCell>
        <mxCell id="X4j_KYpzzPQGK-hWHXPB-36" value="" style="shape=partialRectangle;html=1;whiteSpace=wrap;connectable=0;overflow=hidden;fillColor=none;top=0;left=0;bottom=0;right=0;" vertex="1" parent="X4j_KYpzzPQGK-hWHXPB-34">
          <mxGeometry x="86" width="86" height="70" as="geometry" />
        </mxCell>
        <mxCell id="X4j_KYpzzPQGK-hWHXPB-37" value="" style="shape=partialRectangle;html=1;whiteSpace=wrap;connectable=0;overflow=hidden;fillColor=none;top=0;left=0;bottom=0;right=0;" vertex="1" parent="X4j_KYpzzPQGK-hWHXPB-34">
          <mxGeometry x="172" width="75" height="70" as="geometry" />
        </mxCell>
        <mxCell id="X4j_KYpzzPQGK-hWHXPB-38" value="" style="shape=partialRectangle;html=1;whiteSpace=wrap;connectable=0;overflow=hidden;fillColor=none;top=0;left=0;bottom=0;right=0;" vertex="1" parent="X4j_KYpzzPQGK-hWHXPB-34">
          <mxGeometry x="247" width="161" height="70" as="geometry" />
        </mxCell>
        <mxCell id="X4j_KYpzzPQGK-hWHXPB-39" value="" style="shape=partialRectangle;html=1;whiteSpace=wrap;connectable=0;overflow=hidden;fillColor=none;top=0;left=0;bottom=0;right=0;" vertex="1" parent="X4j_KYpzzPQGK-hWHXPB-34">
          <mxGeometry x="408" width="82" height="70" as="geometry" />
        </mxCell>
        <mxCell id="X4j_KYpzzPQGK-hWHXPB-40" value="" style="shape=partialRectangle;html=1;whiteSpace=wrap;connectable=0;overflow=hidden;fillColor=none;top=0;left=0;bottom=0;right=0;" vertex="1" parent="X4j_KYpzzPQGK-hWHXPB-34">
          <mxGeometry x="490" width="90" height="70" as="geometry" />
        </mxCell>
        <mxCell id="X4j_KYpzzPQGK-hWHXPB-70" style="shape=partialRectangle;html=1;whiteSpace=wrap;connectable=0;overflow=hidden;fillColor=none;top=0;left=0;bottom=0;right=0;" vertex="1" parent="X4j_KYpzzPQGK-hWHXPB-34">
          <mxGeometry x="580" width="70" height="70" as="geometry" />
        </mxCell>
        <mxCell id="X4j_KYpzzPQGK-hWHXPB-41" value="" style="shape=partialRectangle;html=1;whiteSpace=wrap;connectable=0;overflow=hidden;fillColor=none;top=0;left=0;bottom=0;right=0;" vertex="1" parent="X4j_KYpzzPQGK-hWHXPB-34">
          <mxGeometry x="650" width="170" height="70" as="geometry" />
        </mxCell>
        <mxCell id="X4j_KYpzzPQGK-hWHXPB-42" value="" style="shape=partialRectangle;collapsible=0;dropTarget=0;pointerEvents=0;fillColor=none;top=0;left=0;bottom=0;right=0;points=[[0,0.5],[1,0.5]];portConstraint=eastwest;" vertex="1" parent="X4j_KYpzzPQGK-hWHXPB-1">
          <mxGeometry y="340" width="820" height="66" as="geometry" />
        </mxCell>
        <mxCell id="X4j_KYpzzPQGK-hWHXPB-43" value="" style="shape=partialRectangle;html=1;whiteSpace=wrap;connectable=0;overflow=hidden;fillColor=none;top=0;left=0;bottom=0;right=0;" vertex="1" parent="X4j_KYpzzPQGK-hWHXPB-42">
          <mxGeometry width="86" height="66" as="geometry" />
        </mxCell>
        <mxCell id="X4j_KYpzzPQGK-hWHXPB-44" value="" style="shape=partialRectangle;html=1;whiteSpace=wrap;connectable=0;overflow=hidden;fillColor=none;top=0;left=0;bottom=0;right=0;" vertex="1" parent="X4j_KYpzzPQGK-hWHXPB-42">
          <mxGeometry x="86" width="86" height="66" as="geometry" />
        </mxCell>
        <mxCell id="X4j_KYpzzPQGK-hWHXPB-45" value="" style="shape=partialRectangle;html=1;whiteSpace=wrap;connectable=0;overflow=hidden;fillColor=none;top=0;left=0;bottom=0;right=0;" vertex="1" parent="X4j_KYpzzPQGK-hWHXPB-42">
          <mxGeometry x="172" width="75" height="66" as="geometry" />
        </mxCell>
        <mxCell id="X4j_KYpzzPQGK-hWHXPB-46" value="" style="shape=partialRectangle;html=1;whiteSpace=wrap;connectable=0;overflow=hidden;fillColor=none;top=0;left=0;bottom=0;right=0;" vertex="1" parent="X4j_KYpzzPQGK-hWHXPB-42">
          <mxGeometry x="247" width="161" height="66" as="geometry" />
        </mxCell>
        <mxCell id="X4j_KYpzzPQGK-hWHXPB-47" value="" style="shape=partialRectangle;html=1;whiteSpace=wrap;connectable=0;overflow=hidden;fillColor=none;top=0;left=0;bottom=0;right=0;" vertex="1" parent="X4j_KYpzzPQGK-hWHXPB-42">
          <mxGeometry x="408" width="82" height="66" as="geometry" />
        </mxCell>
        <mxCell id="X4j_KYpzzPQGK-hWHXPB-48" value="" style="shape=partialRectangle;html=1;whiteSpace=wrap;connectable=0;overflow=hidden;fillColor=none;top=0;left=0;bottom=0;right=0;" vertex="1" parent="X4j_KYpzzPQGK-hWHXPB-42">
          <mxGeometry x="490" width="90" height="66" as="geometry" />
        </mxCell>
        <mxCell id="X4j_KYpzzPQGK-hWHXPB-71" style="shape=partialRectangle;html=1;whiteSpace=wrap;connectable=0;overflow=hidden;fillColor=none;top=0;left=0;bottom=0;right=0;" vertex="1" parent="X4j_KYpzzPQGK-hWHXPB-42">
          <mxGeometry x="580" width="70" height="66" as="geometry" />
        </mxCell>
        <mxCell id="X4j_KYpzzPQGK-hWHXPB-49" value="" style="shape=partialRectangle;html=1;whiteSpace=wrap;connectable=0;overflow=hidden;fillColor=none;top=0;left=0;bottom=0;right=0;" vertex="1" parent="X4j_KYpzzPQGK-hWHXPB-42">
          <mxGeometry x="650" width="170" height="66" as="geometry" />
        </mxCell>
      </root>
    </mxGraphModel>
  </diagram>
</mxfile>
